<svg xmlns="http://www.w3.org/2000/svg" xmlns:xlink="http://www.w3.org/1999/xlink" width="500" zoomAndPan="magnify" viewBox="0 0 375 374.999991" height="500" preserveAspectRatio="xMidYMid meet" version="1.0"><defs><clipPath id="bbe5e5bcba"><path d="M 16.699219 13 L 364.988281 13 L 364.988281 282.925781 L 16.699219 282.925781 Z M 16.699219 13 " clip-rule="nonzero"/></clipPath><clipPath id="a0a83df995"><path d="M 148.890625 35.480469 L 23.691406 220.78125 C 15.441406 232.992188 14.605469 248.757812 21.519531 261.773438 C 28.433594 274.789062 41.964844 282.925781 56.703125 282.925781 L 325.058594 282.925781 C 339.792969 282.925781 353.328125 274.789062 360.242188 261.773438 C 367.15625 248.757812 366.320312 232.992188 358.070312 220.78125 L 232.867188 35.480469 C 223.445312 21.535156 207.710938 13.175781 190.878906 13.175781 C 174.046875 13.175781 158.316406 21.535156 148.890625 35.480469 Z M 148.890625 35.480469 " clip-rule="nonzero"/></clipPath><clipPath id="03574fa787"><path d="M 16.859375 13 L 364.902344 13 L 364.902344 282.921875 L 16.859375 282.921875 Z M 16.859375 13 " clip-rule="nonzero"/></clipPath><clipPath id="a5e60d4cfe"><path d="M 148.894531 35.484375 L 23.699219 220.78125 C 15.445312 232.992188 14.613281 248.757812 21.523438 261.773438 C 28.4375 274.789062 41.972656 282.921875 56.707031 282.921875 L 325.058594 282.921875 C 339.796875 282.921875 353.328125 274.789062 360.242188 261.773438 C 367.15625 248.757812 366.320312 232.992188 358.070312 220.78125 L 232.871094 35.484375 C 223.449219 21.535156 207.714844 13.179688 190.882812 13.179688 C 174.050781 13.179688 158.320312 21.535156 148.894531 35.484375 Z M 148.894531 35.484375 " clip-rule="nonzero"/></clipPath><clipPath id="2f5335167f"><path d="M 16.09375 143.902344 L 365 143.902344 L 365 361.5 L 16.09375 361.5 Z M 16.09375 143.902344 " clip-rule="nonzero"/></clipPath><clipPath id="e10c3f3ad3"><path d="M 190.546875 143.902344 C 94.199219 143.902344 16.09375 192.613281 16.09375 252.699219 C 16.09375 312.789062 94.199219 361.5 190.546875 361.5 C 286.898438 361.5 365.003906 312.789062 365.003906 252.699219 C 365.003906 192.613281 286.898438 143.902344 190.546875 143.902344 Z M 190.546875 143.902344 " clip-rule="nonzero"/></clipPath><clipPath id="6434ba593a"><path d="M 16.09375 143.902344 L 364.84375 143.902344 L 364.84375 361.402344 L 16.09375 361.402344 Z M 16.09375 143.902344 " clip-rule="nonzero"/></clipPath><clipPath id="372b00da55"><path d="M 190.542969 143.902344 C 94.199219 143.902344 16.09375 192.613281 16.09375 252.699219 C 16.09375 312.785156 94.199219 361.496094 190.542969 361.496094 C 286.890625 361.496094 364.996094 312.785156 364.996094 252.699219 C 364.996094 192.613281 286.890625 143.902344 190.542969 143.902344 Z M 190.542969 143.902344 " clip-rule="nonzero"/></clipPath><clipPath id="db98d9849a"><path d="M 45 23 L 336.71875 23 L 336.71875 254.945312 L 45 254.945312 Z M 45 23 " clip-rule="nonzero"/></clipPath><clipPath id="32aeb400f1"><path d="M 149.128906 45.453125 L 51.785156 192.417969 C 43.59375 204.785156 42.863281 220.652344 49.882812 233.722656 C 56.902344 246.792969 70.535156 254.945312 85.371094 254.945312 L 295.722656 254.945312 C 310.558594 254.945312 324.191406 246.792969 331.210938 233.722656 C 338.230469 220.652344 337.5 204.785156 329.308594 192.417969 L 231.960938 45.453125 C 222.761719 31.558594 207.210938 23.207031 190.546875 23.207031 C 173.882812 23.207031 158.332031 31.558594 149.128906 45.453125 Z M 149.128906 45.453125 " clip-rule="nonzero"/></clipPath><clipPath id="bfc2b8959c"><path d="M 45 23 L 337 23 L 337 254.945312 L 45 254.945312 Z M 45 23 " clip-rule="nonzero"/></clipPath><clipPath id="85dda8664e"><path d="M 149.132812 45.457031 L 51.789062 192.417969 C 43.597656 204.785156 42.867188 220.65625 49.886719 233.722656 C 56.90625 246.792969 70.539062 254.945312 85.375 254.945312 L 295.722656 254.945312 C 310.554688 254.945312 324.191406 246.792969 331.210938 233.722656 C 338.226562 220.65625 337.496094 204.785156 329.304688 192.417969 L 231.960938 45.457031 C 222.761719 31.566406 207.210938 23.210938 190.546875 23.210938 C 173.886719 23.210938 158.332031 31.566406 149.132812 45.457031 Z M 149.132812 45.457031 " clip-rule="nonzero"/></clipPath><clipPath id="b0f1f6e485"><path d="M 89.417969 169 L 296 169 L 296 329.8125 L 89.417969 329.8125 Z M 89.417969 169 " clip-rule="nonzero"/></clipPath><clipPath id="aa64bb7ad3"><path d="M 96.308594 196.597656 C 83.40625 223.007812 91.328125 248.714844 106.246094 262.359375 L 170.207031 320.742188 C 183.355469 332.742188 203.507812 332.652344 216.546875 320.535156 L 278.855469 262.644531 C 292.730469 247.964844 297.058594 232.398438 295.097656 215.0625 C 291.015625 191.082031 270.246094 172.476562 244.585938 169.820312 C 228.847656 168.539062 213.648438 172.445312 201.78125 181.824219 C 198.589844 184.351562 195.734375 187.171875 193.246094 190.238281 C 190.296875 186.746094 186.835938 183.550781 182.921875 180.722656 C 169.277344 170.855469 151.910156 167.816406 135.226562 169.984375 C 119.425781 172.890625 105.242188 182.585938 96.308594 196.597656 Z M 96.308594 196.597656 " clip-rule="nonzero"/></clipPath><clipPath id="60cbf06e81"><path d="M 89 169 L 295.816406 169 L 295.816406 330 L 89 330 Z M 89 169 " clip-rule="nonzero"/></clipPath><clipPath id="4c42276059"><path d="M 96.308594 196.597656 C 83.40625 223.007812 91.328125 248.710938 106.246094 262.355469 L 170.203125 320.730469 C 183.351562 332.730469 203.503906 332.644531 216.542969 320.527344 L 278.847656 262.636719 C 292.722656 247.960938 297.046875 232.394531 295.085938 215.058594 C 291.007812 191.082031 270.238281 172.476562 244.578125 169.820312 C 228.84375 168.539062 213.640625 172.445312 201.777344 181.824219 C 198.582031 184.347656 195.730469 187.171875 193.242188 190.238281 C 190.289062 186.746094 186.828125 183.550781 182.914062 180.71875 C 169.273438 170.855469 151.90625 167.816406 135.222656 169.984375 C 119.425781 172.890625 105.242188 182.585938 96.308594 196.597656 Z M 96.308594 196.597656 " clip-rule="nonzero"/></clipPath></defs><g clip-path="url(#bbe5e5bcba)"><g clip-path="url(#a0a83df995)"><path fill="#28486e" d="M 400.058594 282.925781 L -18.371094 282.925781 L -18.371094 -26.664062 L 400.058594 -26.664062 Z M 400.058594 282.925781 " fill-opacity="1" fill-rule="nonzero"/></g></g><g clip-path="url(#03574fa787)"><g clip-path="url(#a5e60d4cfe)"><path stroke-linecap="butt" transform="matrix(-0.75, 0, 0, -0.75, 400.057274, 282.923331)" fill="none" stroke-linejoin="miter" d="M 334.883679 329.91863 L 501.810774 82.856113 C 512.815983 66.574862 513.925358 45.554028 504.711815 28.19986 C 495.493065 10.845692 477.446189 0.00194136 457.800354 0.00194136 L 99.998247 0.00194136 C 80.347204 0.00194136 62.305536 10.845692 53.086786 28.19986 C 43.868035 45.554028 44.982619 66.574862 55.982619 82.856113 L 222.914922 329.91863 C 235.477423 348.517589 256.456591 359.658215 278.899301 359.658215 C 301.34201 359.658215 322.31597 348.517589 334.883679 329.91863 Z M 334.883679 329.91863 " stroke="#000000" stroke-width="20" stroke-opacity="1" stroke-miterlimit="4"/></g></g><g clip-path="url(#2f5335167f)"><g clip-path="url(#e10c3f3ad3)"><path fill="#28486e" d="M 16.09375 143.902344 L 364.589844 143.902344 L 364.589844 361.5 L 16.09375 361.5 Z M 16.09375 143.902344 " fill-opacity="1" fill-rule="nonzero"/></g></g><g clip-path="url(#6434ba593a)"><g clip-path="url(#372b00da55)"><path stroke-linecap="butt" transform="matrix(0.75, 0, 0, 0.75, 16.093509, 143.902462)" fill="none" stroke-linejoin="miter" d="M 232.599295 -0.000157334 C 104.140953 -0.000157334 0.000321062 64.947764 0.000321062 145.062352 C 0.000321062 225.176941 104.140953 290.124862 232.599295 290.124862 C 361.062845 290.124862 465.203477 225.176941 465.203477 145.062352 C 465.203477 64.947764 361.062845 -0.000157334 232.599295 -0.000157334 Z M 232.599295 -0.000157334 " stroke="#000000" stroke-width="20" stroke-opacity="1" stroke-miterlimit="4"/></g></g><g clip-path="url(#db98d9849a)"><g clip-path="url(#32aeb400f1)"><path fill="#28486e" d="M 370.722656 254.945312 L 10.507812 254.945312 L 10.507812 -17.078125 L 370.722656 -17.078125 Z M 370.722656 254.945312 " fill-opacity="1" fill-rule="nonzero"/></g></g><g clip-path="url(#bfc2b8959c)"><g clip-path="url(#85dda8664e)"><path stroke-linecap="butt" transform="matrix(-0.75, 0, 0, -0.75, 370.720264, 254.945198)" fill="none" stroke-linejoin="miter" d="M 295.449936 279.317557 L 425.241603 83.36964 C 436.163478 66.880056 437.137436 45.718598 427.778061 28.296723 C 418.418686 10.86964 400.241603 -0.000152055 380.460353 -0.000152055 L 99.996811 -0.000152055 C 80.220769 -0.000152055 62.038477 10.86964 52.679102 28.296723 C 43.324936 45.718598 44.298894 66.880056 55.220769 83.36964 L 185.012436 279.317557 C 197.278061 297.83839 218.012436 308.979015 240.231186 308.979015 C 262.444728 308.979015 283.184311 297.83839 295.449936 279.317557 Z M 295.449936 279.317557 " stroke="#28486e" stroke-width="20" stroke-opacity="1" stroke-miterlimit="4"/></g></g><g clip-path="url(#b0f1f6e485)"><g clip-path="url(#aa64bb7ad3)"><path fill="#ff66c4" d="M 88.066406 168.976562 L 296.210938 168.976562 L 296.210938 341.976562 L 88.066406 341.976562 Z M 88.066406 168.976562 " fill-opacity="1" fill-rule="nonzero"/></g></g><g clip-path="url(#60cbf06e81)"><g clip-path="url(#4c42276059)"><path stroke-linecap="butt" transform="matrix(0.75, 0, 0, 0.75, 88.06874, 168.975018)" fill="none" stroke-linejoin="miter" d="M 10.986473 36.83019 C -6.216655 72.043736 4.345847 106.314574 24.236474 124.507284 L 109.512527 202.340628 C 127.043779 218.34063 153.913575 218.226046 171.298993 202.069794 L 254.371921 124.882284 C 272.871923 105.314573 278.637549 84.559362 276.022965 61.444776 C 270.585465 29.476022 242.892753 4.668727 208.679207 1.12706 C 187.700037 -0.581274 167.429201 4.62706 151.611491 17.13227 C 147.351074 20.496854 143.54899 24.26248 140.231281 28.351022 C 136.293781 23.694771 131.679197 19.434354 126.460446 15.658312 C 108.272944 2.507268 85.116691 -1.544815 62.871896 1.34581 C 41.809393 5.22081 22.897933 18.147895 10.986473 36.83019 Z M 10.986473 36.83019 " stroke="#000000" stroke-width="22" stroke-opacity="1" stroke-miterlimit="4"/></g></g></svg>